# xmcd
#
# Track frame offsets: 
#        150
#        27450
#        47110
#        74410
#        100560
#        126705
#        151302
#        175687
#        195990
#        227722
#        250435
#
# Disc length: 3641 seconds
#
# Revision: 0
# Processed by: cddbd v1.5.2PL0 Copyright (c) Steve Scherf et al.
# Submitted via: ExactAudioCopy v1.3
#
DISCID=940e370b
DTITLE=Jasmine Guy - Another Like My Lover - Try Me (EP Japan)
DYEAR=1990
DGENRE=Funk
TTITLE0=Try Me (Special Slammin' Remix)
TTITLE1=Try Me (Special Slammin' Remix Edit)
TTITLE2=Try Me (Extended Version)
TTITLE3=Another Like My Lover (Hip Hop Club Mix)
TTITLE4=Another Like My Lover (East Coast Boom Club Mix)
TTITLE5=Another Like My Lover (Club Dub No. 1)
TTITLE6=Another Like My Lover (Club Dub No. 2)
TTITLE7=Another Like My Lover (Cold Weather Mix)
TTITLE8=Another Like My Lover (Cold Weather Bonus Beats-Dub)
TTITLE9=Another Like My Lover (Extended Mix)
TTITLE10=Another Like My Lover (Percussapella)
EXTD=
EXTT0=
EXTT1=
EXTT2=
EXTT3=
EXTT4=
EXTT5=
EXTT6=
EXTT7=
EXTT8=
EXTT9=
EXTT10=
PLAYORDER=
